<?xml version="1.0" ?><!DOCTYPE svg  PUBLIC '-//W3C//DTD SVG 1.1//EN'  'http://www.w3.org/Graphics/SVG/1.1/DTD/svg11.dtd'><svg enable-background="new 0 0 24 24" height="24px" id="Layer_1" version="1.1" viewBox="0 0 24 24" width="24px" xml:space="preserve" xmlns="http://www.w3.org/2000/svg" xmlns:xlink="http://www.w3.org/1999/xlink"><path d="M23.7,4.5l-4.2-4.2c-0.4-0.4-1-0.4-1.4,0c-0.4,0.4-0.4,1,0,1.4l1.4,1.4L18,4.5l-1.4-1.4c-0.4-0.4-1-0.4-1.4,0L2.5,15.8  c-0.4,0.4-0.4,1,0,1.4l1.4,1.4L0,24l5.3-3.9l1.4,1.4c0.4,0.4,1,0.4,1.4,0L20.9,8.8c0.4-0.4,0.4-1,0-1.4L19.5,6l1.4-1.4L22.3,6  c0.4,0.4,1,0.4,1.4,0C24.1,5.6,24.1,4.9,23.7,4.5z M16.6,10.2l-1.4-1.4l-0.7,0.7l1.4,1.4l-1.4,1.4l-1.4-1.4l-0.7,0.7l1.4,1.4  l-1.4,1.4L11,13l-0.7,0.7l1.4,1.4l-1.4,1.4l-1.4-1.4l-0.7,0.7l1.4,1.4l-2.1,2.1l-2.8-2.8L15.9,5.2l2.8,2.8L16.6,10.2z"/></svg>